<mxfile host="app.diagrams.net" modified="2024-05-16T15:15:01.792Z" agent="Mozilla/5.0 (X11; Linux x86_64) AppleWebKit/537.36 (KHTML, like Gecko) Chrome/126.0.0.0 Safari/537.36" version="24.3.1" etag="PjN9c8N82vCjWa2_IRq9" type="github">
  <diagram name="Page-1" id="4F6QYAibEhhdTAnmQrz3">
    <mxGraphModel>
      <root>
        <mxCell id="0" />
        <mxCell id="1" parent="0" />
      </root>
    </mxGraphModel>
  </diagram>
</mxfile>
